<?xml version="1.0" standalone="no"?>
<!DOCTYPE svg PUBLIC "-//W3C//DTD SVG 20010904//EN"
 "http://www.w3.org/TR/2001/REC-SVG-20010904/DTD/svg10.dtd">
<svg version="1.0" xmlns="http://www.w3.org/2000/svg"
 width="900.000000pt" height="255.000000pt" viewBox="0 0 900.000000 255.000000"
 preserveAspectRatio="xMidYMid meet">

<g transform="translate(0.000000,255.000000) scale(0.100000,-0.100000)"
fill="#ff0000" stroke="none">
<path d="M1550 2306 c0 -7 448 -577 482 -613 17 -17 52 -41 79 -52 46 -20 63
-21 404 -19 l355 3 -226 290 c-255 328 -264 339 -319 368 -39 21 -53 22 -407
25 -203 2 -368 1 -368 -2z"/>
<path d="M1014 1455 c-28 -14 -60 -36 -73 -48 -12 -13 -217 -278 -455 -588
l-434 -564 356 -3 c390 -3 403 -1 469 56 17 15 109 128 204 252 162 211 503
652 646 838 l64 82 -363 0 -364 0 -50 -25z"/>
<path d="M3385 1115 l0 -335 63 0 62 0 0 145 0 145 60 0 c130 0 211 70 212
184 1 144 -80 196 -307 196 l-90 0 0 -335z m239 204 c44 -20 52 -85 14 -116
-8 -7 -38 -13 -68 -15 l-55 -3 -3 73 -3 72 45 0 c25 0 56 -5 70 -11z"/>
<path d="M3970 1115 l0 -335 185 0 185 0 0 58 0 57 -120 -3 -120 -3 0 95 0 96
120 0 120 0 0 60 0 60 -120 0 -120 0 0 65 0 65 120 0 120 0 0 60 0 60 -185 0
-185 0 0 -335z"/>
<path d="M4530 1116 l0 -336 60 0 60 0 0 139 c0 77 3 142 8 144 4 3 42 -59 84
-136 l76 -142 70 -3 70 -3 -79 145 c-43 80 -79 147 -79 150 0 3 18 15 40 27
97 54 117 191 43 280 -42 49 -83 61 -225 67 l-128 5 0 -337z m235 204 c34 -13
50 -55 34 -92 -12 -31 -30 -38 -99 -41 l-45 -2 -3 73 -3 72 45 0 c25 0 56 -4
71 -10z"/>
<path d="M5060 1390 l0 -60 60 0 60 0 0 -275 0 -275 65 0 65 0 0 275 0 275 60
0 60 0 0 60 0 60 -185 0 -185 0 0 -60z"/>
<path d="M5767 1438 c-24 -61 -193 -494 -207 -533 -10 -27 -25 -67 -34 -88
l-17 -38 67 3 68 3 26 65 26 65 141 3 141 3 22 -66 c12 -37 28 -69 35 -71 7
-3 37 -4 68 -2 l55 3 -105 270 c-57 149 -115 297 -128 330 l-24 60 -64 3 c-46
2 -66 -1 -70 -10z m116 -278 c20 -52 37 -101 39 -108 2 -10 -18 -13 -84 -14
-49 0 -89 3 -89 7 -3 14 85 225 91 218 3 -4 23 -51 43 -103z"/>
<path d="M6385 1343 c-10 -60 -32 -191 -50 -293 -18 -102 -36 -204 -40 -227
l-7 -43 61 0 c34 0 61 4 61 8 0 5 16 96 35 202 19 106 35 198 35 203 0 27 17
-18 79 -205 l67 -203 59 0 58 0 71 208 c48 143 72 202 77 189 6 -17 69 -376
69 -395 0 -4 27 -7 60 -7 33 0 60 3 60 8 0 7 -17 105 -75 442 -19 113 -35 209
-35 213 0 4 -28 7 -62 5 l-61 -3 -77 -227 c-42 -125 -79 -230 -82 -233 -3 -3
-41 100 -84 229 l-79 236 -61 0 -61 0 -18 -107z"/>
<path d="M7270 1115 l0 -335 60 0 60 0 0 335 0 335 -60 0 -60 0 0 -335z"/>
<path d="M7570 1115 l0 -335 63 0 62 0 -1 211 c0 115 3 212 6 214 4 2 69 -93
146 -210 l139 -215 63 0 62 0 0 335 0 335 -60 0 -60 0 0 -220 c0 -121 -3 -220
-7 -220 -5 0 -73 99 -152 220 l-143 220 -59 0 -59 0 0 -335z"/>
<path d="M8516 1347 c-29 -78 -145 -378 -213 -555 -4 -10 10 -12 62 -10 l67 3
25 68 25 68 141 -3 140 -3 26 -67 26 -68 66 0 67 0 -38 93 c-20 50 -79 201
-130 335 l-94 242 -65 0 -66 0 -39 -103z m169 -228 c14 -39 25 -73 25 -77 0
-4 -39 -6 -87 -5 -49 1 -88 5 -88 10 0 4 15 46 34 93 18 47 38 96 43 110 9 24
10 24 28 -18 11 -23 31 -74 45 -113z"/>
</g>
</svg>
